<svg width="83" height="83" viewBox="0 0 83 83" fill="none" xmlns="http://www.w3.org/2000/svg">
<rect width="83" height="83" rx="41.5" fill="#41545F"/>
<path d="M46.7773 19.3232H46.9269C47.3532 19.3402 47.7773 19.3947 48.1941 19.486C48.6477 19.6035 49.0799 19.7921 49.4745 20.0448C49.983 20.4259 50.3212 20.9917 50.4161 21.62C50.8635 23.3206 50.8023 25.115 50.2401 26.7812C49.9989 27.3813 49.7272 27.9688 49.4261 28.5412C49.2545 28.8888 49.0741 29.2452 48.9025 29.6148C48.7661 29.9052 48.6561 30.1824 48.5505 30.4508L48.4141 30.794L47.1293 33.962H58.4813C59.0528 33.9454 59.6169 34.0939 60.1062 34.3897C60.5955 34.6854 60.9891 35.1159 61.2401 35.6296C61.3775 35.9119 61.488 36.2065 61.5701 36.5096L61.6801 36.8792V37.6096C61.6801 37.68 61.6493 37.7548 61.6317 37.8384C61.5495 38.4602 61.3102 39.0507 60.9365 39.5544C60.5839 39.975 60.3437 40.4781 60.2383 41.0167C60.1328 41.5554 60.1657 42.1119 60.3337 42.6344C60.525 43.1864 60.5821 43.776 60.5002 44.3545C60.4183 44.9329 60.1999 45.4836 59.8629 45.9608C59.4893 46.5441 59.3134 47.2322 59.3613 47.9232C59.3613 48.2268 59.4053 48.5084 59.4317 48.7592C59.4659 49.0115 59.4821 49.2658 59.4801 49.5204C59.4525 50.3817 59.1168 51.2044 58.5341 51.8392C58.0774 52.357 57.805 53.0115 57.7597 53.7004C57.7377 54.0172 57.7289 54.3076 57.7245 54.5804C57.726 54.8982 57.7054 55.2158 57.6629 55.5308C57.5963 56.0285 57.418 56.5047 57.1414 56.9237C56.8648 57.3428 56.4971 57.6939 56.0657 57.9508C55.3115 58.3902 54.4568 58.6281 53.5841 58.6416C52.9197 58.6724 52.2641 58.6724 51.5337 58.6724C51.0409 58.6724 50.5349 58.6724 50.0201 58.6724H49.5801C47.8169 58.6689 46.0615 58.4382 44.3573 57.986C42.9229 57.6076 41.4533 57.1456 40.0365 56.7012L38.8221 56.3228C38.4833 56.2172 38.1445 56.1028 37.7837 55.9796C36.6147 55.541 35.4022 55.2283 34.1669 55.0468C34.1669 55.0468 34.1669 55.0204 34.1669 55.0028C34.1933 50.7612 34.1889 46.4536 34.1669 42.2868C34.1669 40.6999 34.1669 39.1129 34.1669 37.526C34.9669 37.3446 35.6991 36.9403 36.2789 36.36L36.3317 36.3072C37.2117 35.392 38.1533 34.4416 39.0245 33.4252C40.1245 32.136 41.2245 30.816 42.2541 29.5356L43.1341 28.4312L43.2133 28.3344C43.5716 27.9206 43.8967 27.4792 44.1857 27.0144C44.9285 25.6289 45.4201 24.1229 45.6377 22.566L45.7125 22.1832C45.9721 20.96 46.2317 20.036 46.7773 19.3232ZM46.5441 17C46.2486 17.0057 45.9586 17.0813 45.6978 17.2204C45.4371 17.3596 45.2129 17.5585 45.0437 17.8008C44.1197 18.9536 43.7501 20.3132 43.4729 21.7212C43.1957 23.1292 42.9713 24.5636 42.2233 25.822C41.9692 26.2213 41.6854 26.6008 41.3741 26.9572C40.0145 28.616 38.6681 30.2836 37.2777 31.916C36.4417 32.8928 35.5177 33.8168 34.6377 34.7408C34.309 35.0731 33.8782 35.2854 33.4145 35.3436C33.0149 35.4159 32.6503 35.6181 32.3774 35.9189C32.1045 36.2196 31.9385 36.6021 31.9053 37.0068C31.9053 37.1872 31.9053 37.372 31.9053 37.5568C31.9053 43.378 31.9053 49.1992 31.9053 55.0204C31.9053 56.3756 32.5565 57.2204 33.8589 57.3568C35.3593 57.5152 36.7541 58.1092 38.1797 58.5536C40.0497 59.1344 41.9153 59.746 43.8117 60.2432C45.6984 60.7424 47.6416 60.9967 49.5933 61H50.0817C51.2873 60.9736 52.4973 61 53.7073 60.956C54.9671 60.9227 56.1972 60.5666 57.2801 59.922C57.9829 59.4951 58.5835 58.9193 59.0397 58.2351C59.4958 57.5509 59.7963 56.7749 59.9201 55.962C59.9962 55.2723 60.0373 54.5791 60.0433 53.8852C60.0508 53.7109 60.1123 53.5433 60.2193 53.4056C61.1601 52.3808 61.7073 51.0557 61.7637 49.6656C61.7667 49.0559 61.7388 48.4465 61.6801 47.8396C61.6601 47.6404 61.6999 47.4397 61.7945 47.2632C62.3243 46.5035 62.6695 45.6305 62.8024 44.7138C62.9353 43.7972 62.8523 42.8621 62.5601 41.9832C62.495 41.8174 62.4779 41.6367 62.5106 41.4617C62.5432 41.2867 62.6244 41.1243 62.7449 40.9932C63.3663 40.1894 63.7708 39.2394 63.9197 38.2344C63.9197 38.1156 63.9769 38.0012 64.0033 37.8824V36.5008C63.8135 35.8001 63.5602 35.1182 63.2465 34.4636C62.7897 33.6074 62.1057 32.8936 61.2697 32.4007C60.4337 31.9078 59.478 31.6548 58.5077 31.6696H50.5261C50.6845 31.2736 50.8121 30.926 50.9661 30.596C51.4325 29.5928 51.9869 28.6248 52.3741 27.5908C53.0981 25.5135 53.1991 23.2699 52.6645 21.136C52.4451 19.9302 51.7629 18.858 50.7637 18.1484C50.1637 17.7525 49.5041 17.4554 48.8101 17.2684C48.1231 17.1152 47.4235 17.0254 46.7201 17H46.5441Z" fill="white"/>
<path d="M25.4284 37.6274H28.6228C28.6228 39.0412 28.6228 40.4551 28.6228 41.869V46.8894C28.6228 49.5968 28.6228 52.3058 28.6228 55.0162H21.3056V37.6406H25.4328M25.4328 35.3394C23.9045 35.3394 22.3763 35.3394 20.848 35.3394C20.5411 35.3615 20.2418 35.4453 19.968 35.5858C19.4998 35.8494 19.1526 36.285 19 36.8002V55.9094C19.0273 55.9304 19.0511 55.9556 19.0704 55.9842C19.484 56.9654 19.9988 57.3042 21.0636 57.3042H28.8604C29.0803 57.3126 29.3003 57.2949 29.516 57.2514C30.4224 57.027 30.9284 56.3054 30.9284 55.245C30.9284 51.414 30.9284 47.5831 30.9284 43.7522C30.9284 41.6182 30.9284 39.4798 30.9284 37.3458C30.9284 36.1578 30.176 35.3262 29.0848 35.3218H25.4284L25.4328 35.3394Z" fill="white"/>
</svg>
