<svg width="83" height="83" viewBox="0 0 83 83" fill="none" xmlns="http://www.w3.org/2000/svg">
<rect width="83" height="83" rx="41.5" fill="#41545F"/>
<path d="M27.3658 30.9599C27.8422 29.0725 29.54 27.75 31.4866 27.75H51.5134C53.46 27.75 55.1578 29.0725 55.6342 30.9599L62.7018 58.9599C63.3795 61.6446 61.35 64.25 58.5811 64.25H24.4189C21.65 64.25 19.6205 61.6446 20.2982 58.9599L27.3658 30.9599Z" stroke="white" stroke-width="1.5"/>
<path d="M50 28L50 20.8889C50 18.5314 49.0518 16.2705 47.364 14.6035C45.6761 12.9365 43.3869 12 41 12C38.6131 12 36.3239 12.9365 34.636 14.6035C32.9482 16.2705 32 18.5314 32 20.8889L32 28" stroke="white" stroke-width="1.5"/>
<path d="M31 47L40.0858 56.0858C40.8668 56.8668 42.1332 56.8668 42.9142 56.0858L60 39" stroke="white" stroke-width="3" stroke-linecap="round"/>
<path d="M31 39L40.0858 48.0858C40.8668 48.8668 42.1332 48.8668 42.9142 48.0858L60 31" stroke="white" stroke-width="3" stroke-linecap="round"/>
</svg>
