<svg width="83" height="83" viewBox="0 0 83 83" fill="none" xmlns="http://www.w3.org/2000/svg">
<rect width="83" height="83" rx="41.5" fill="#41545F"/>
<path d="M22.7119 39.5192V55.9767C22.7119 57.83 24.207 59.3311 26.0528 59.3311H29.5943V62.3228C29.5943 63.2495 30.3418 64 31.2648 64C31.6344 63.9979 31.9956 63.8742 32.2901 63.6478L37.8591 59.3101H60.659C62.5049 59.3101 64 57.8069 64 55.9557V32.4185C64 30.5653 62.5049 29.0641 60.659 29.0641H41.2647C41.223 24.76 38.9219 20.7978 35.2136 18.6403C31.503 16.483 26.9343 16.4515 23.1946 18.5585C19.4568 20.6655 17.1017 24.5964 17.0033 28.9008C16.9031 33.2049 19.0747 37.2407 22.7124 39.5195L22.7119 39.5192ZM62.8871 32.4186V55.9772C62.8871 56.5706 62.6532 57.1408 62.2355 57.5601C61.8179 57.9794 61.2499 58.2142 60.659 58.2142H37.6853C37.5601 58.2142 37.441 58.2541 37.3387 58.3253L31.5922 62.7825C31.4252 62.9146 31.1955 62.9376 31.0034 62.8433C30.8112 62.749 30.6901 62.554 30.6901 62.3401V58.774C30.6901 58.6252 30.6317 58.4826 30.5273 58.3778C30.4229 58.2729 30.2809 58.2142 30.1347 58.2142H26.0524C24.8225 58.2142 23.8244 57.2121 23.8244 55.9772V40.1445C26.2278 41.3248 28.9528 41.6707 31.5734 41.1277C34.1939 40.5847 36.5598 39.1863 38.3034 37.1485H56.7895C57.0964 37.1485 57.347 36.899 57.347 36.5887C57.347 36.2805 57.0965 36.031 56.7895 36.031H39.1764C40.354 34.293 41.0598 32.2783 41.2269 30.182H60.6591C61.889 30.182 62.8871 31.1837 62.8871 32.4186ZM29.1367 18.1562C32.0622 18.1562 34.8645 19.3239 36.9316 21.3995C38.9989 23.4771 40.1599 26.2927 40.1578 29.2279C40.1557 32.163 38.9905 34.9787 36.9212 37.0519C34.8519 39.1254 32.0454 40.2889 29.122 40.2847C26.1986 40.2805 23.3964 39.1107 21.3314 37.031C19.2683 34.9512 18.1115 32.1335 18.1178 29.1983C18.1282 26.2695 19.2934 23.4641 21.3585 21.3951C23.4237 19.3259 26.2195 18.1604 29.1367 18.1562ZM57.3576 44.1531C57.3576 44.3019 57.2991 44.4445 57.1947 44.5493C57.0903 44.6541 56.9483 44.7129 56.8001 44.7129H29.5147H29.5167C29.2077 44.7129 28.9592 44.4634 28.9592 44.1531C28.9592 43.8449 29.2077 43.5954 29.5167 43.5954H56.8022H56.8001C56.9483 43.5954 57.0903 43.6541 57.1947 43.7589C57.2991 43.8637 57.3576 44.0063 57.3576 44.1531ZM50.7531 51.3879C50.7531 51.5367 50.6947 51.6793 50.5903 51.7841C50.4859 51.8889 50.3439 51.9476 50.1977 51.9476H46.5936C46.2866 51.9476 46.0381 51.6961 46.0381 51.3879C46.0381 51.0796 46.2866 50.8281 46.5936 50.8281H50.1977C50.3439 50.8281 50.4859 50.8868 50.5903 50.9916C50.6947 51.0964 50.7531 51.239 50.7531 51.3879ZM44.3678 51.3879C44.3678 51.5367 44.3093 51.6793 44.2049 51.7841C44.1005 51.8889 43.9585 51.9476 43.8103 51.9476H29.1372C28.8303 51.9476 28.5817 51.6961 28.5817 51.3879C28.5817 51.0796 28.8302 50.8281 29.1372 50.8281H43.8103C43.9585 50.8281 44.1005 50.8868 44.2049 50.9916C44.3093 51.0964 44.3678 51.239 44.3678 51.3879ZM22.4782 30.144C21.7035 28.7519 21.645 27.0705 22.3174 25.626C22.8207 24.3178 23.9169 23.3283 25.2679 22.9656C26.6836 22.6658 28.1537 23.1123 29.1664 24.1501C30.1792 23.1144 31.6471 22.6679 33.0629 22.9656C34.4139 23.3283 35.5101 24.3178 36.0155 25.626C36.6878 27.0705 36.6273 28.7519 35.8526 30.144C35.0215 31.3726 34.0443 32.5005 32.9459 33.4984C32.7246 33.7269 32.3591 33.7332 32.1316 33.511C31.9019 33.2888 31.8956 32.9219 32.117 32.6934C33.1422 31.7521 34.0568 30.6975 34.8462 29.5507C35.4287 28.4731 35.4621 27.1795 34.9338 26.0726C34.5768 25.0935 33.7749 24.345 32.7747 24.06C31.5615 23.844 30.3316 24.3283 29.5883 25.3136C29.486 25.4604 29.3168 25.5464 29.1372 25.5484C28.9598 25.5464 28.7906 25.4604 28.6862 25.3136C27.9449 24.3283 26.7129 23.844 25.5019 24.06C24.5016 24.3451 23.6977 25.0935 23.3406 26.0726C22.8082 27.1837 22.8416 28.4857 23.4304 29.5675C24.5434 31.4187 28.0138 34.4544 29.1374 35.4106C29.461 35.1359 29.9726 34.6957 30.5677 34.159L30.5698 34.1569C30.7974 33.9514 31.1482 33.9682 31.355 34.1967C31.4552 34.3078 31.5074 34.4525 31.4991 34.6013C31.4928 34.7502 31.426 34.8906 31.3153 34.9913C30.2963 35.9074 29.5007 36.5678 29.4945 36.5741V36.572C29.2878 36.746 28.9892 36.746 28.7825 36.572C28.5862 36.4106 23.9044 32.5133 22.4782 30.144Z" fill="white"/>
<path d="M44.3657 51.3879H44.3678M44.3678 51.3879C44.3678 51.5367 44.3093 51.6793 44.2049 51.7841C44.1005 51.8889 43.9585 51.9476 43.8103 51.9476H29.1372C28.8303 51.9476 28.5818 51.6961 28.5818 51.3879C28.5818 51.0796 28.8302 50.8281 29.1372 50.8281H43.8103C43.9585 50.8281 44.1005 50.8868 44.2049 50.9916C44.3093 51.0964 44.3678 51.239 44.3678 51.3879ZM22.4761 30.144H22.4782M22.4782 30.144C21.7035 28.7519 21.645 27.0705 22.3174 25.626C22.8207 24.3178 23.9169 23.3283 25.2679 22.9656C26.6836 22.6658 28.1537 23.1123 29.1664 24.1501C30.1792 23.1144 31.6471 22.6679 33.0629 22.9656C34.4139 23.3283 35.5101 24.3178 36.0155 25.626C36.6878 27.0705 36.6273 28.7519 35.8526 30.144C35.0215 31.3726 34.0443 32.5005 32.9459 33.4984C32.7246 33.7269 32.3591 33.7332 32.1316 33.511C31.9019 33.2888 31.8956 32.9219 32.117 32.6934C33.1422 31.7521 34.0568 30.6975 34.8462 29.5507C35.4287 28.4731 35.4621 27.1795 34.9338 26.0726C34.5768 25.0935 33.7749 24.345 32.7747 24.06C31.5615 23.844 30.3316 24.3283 29.5883 25.3136C29.486 25.4604 29.3168 25.5464 29.1372 25.5484C28.9598 25.5464 28.7906 25.4604 28.6862 25.3136C27.9449 24.3283 26.7129 23.844 25.5019 24.06C24.5016 24.3451 23.6977 25.0935 23.3406 26.0726C22.8082 27.1837 22.8416 28.4857 23.4304 29.5675C24.5434 31.4187 28.0138 34.4544 29.1374 35.4106C29.461 35.1359 29.9726 34.6957 30.5677 34.159L30.5698 34.1569C30.7974 33.9514 31.1482 33.9682 31.355 34.1967C31.4552 34.3078 31.5074 34.4525 31.4991 34.6013C31.4928 34.7502 31.426 34.8906 31.3153 34.9913C30.2963 35.9074 29.5007 36.5678 29.4945 36.5741V36.572C29.2878 36.746 28.9892 36.746 28.7825 36.572C28.5862 36.4106 23.9044 32.5133 22.4782 30.144ZM22.7119 39.5192V55.9767C22.7119 57.83 24.207 59.3311 26.0528 59.3311H29.5943V62.3228C29.5943 63.2495 30.3418 64 31.2648 64C31.6344 63.9979 31.9956 63.8742 32.2901 63.6478L37.8591 59.3101H60.659C62.5049 59.3101 64 57.8069 64 55.9557V32.4185C64 30.5653 62.5049 29.0641 60.659 29.0641H41.2647C41.223 24.76 38.9219 20.7978 35.2136 18.6403C31.503 16.483 26.9343 16.4515 23.1946 18.5585C19.4568 20.6655 17.1017 24.5964 17.0033 28.9008C16.9031 33.2049 19.0747 37.2407 22.7124 39.5195L22.7119 39.5192ZM62.8871 32.4186V55.9772C62.8871 56.5706 62.6532 57.1408 62.2355 57.5601C61.8179 57.9794 61.2499 58.2142 60.659 58.2142H37.6853C37.5601 58.2142 37.441 58.254 37.3387 58.3253L31.5922 62.7825C31.4252 62.9146 31.1955 62.9376 31.0034 62.8433C30.8112 62.749 30.6901 62.554 30.6901 62.3401V58.774C30.6901 58.6252 30.6317 58.4826 30.5273 58.3778C30.4229 58.2729 30.2809 58.2142 30.1347 58.2142H26.0524C24.8225 58.2142 23.8244 57.2121 23.8244 55.9773V40.1445C26.2278 41.3248 28.9528 41.6707 31.5734 41.1277C34.1939 40.5847 36.5598 39.1863 38.3034 37.1485H56.7895C57.0964 37.1485 57.347 36.899 57.347 36.5887C57.347 36.2805 57.0965 36.031 56.7895 36.031H39.1764C40.354 34.293 41.0598 32.2783 41.2269 30.182H60.6591C61.889 30.182 62.8871 31.1837 62.8871 32.4186ZM29.1367 18.1562C32.0622 18.1562 34.8645 19.3239 36.9316 21.3995C38.9989 23.4771 40.1599 26.2927 40.1578 29.2279C40.1557 32.163 38.9905 34.9787 36.9212 37.0519C34.8519 39.1254 32.0454 40.2889 29.122 40.2847C26.1986 40.2805 23.3964 39.1107 21.3314 37.031C19.2683 34.9512 18.1115 32.1335 18.1178 29.1983C18.1282 26.2695 19.2934 23.4641 21.3585 21.3951C23.4237 19.3259 26.2195 18.1604 29.1367 18.1562ZM57.3576 44.1531C57.3576 44.3019 57.2991 44.4445 57.1947 44.5493C57.0903 44.6541 56.9483 44.7129 56.8001 44.7129H29.5147H29.5167C29.2077 44.7129 28.9592 44.4634 28.9592 44.1531C28.9592 43.8449 29.2077 43.5954 29.5167 43.5954H56.8022H56.8001C56.9483 43.5954 57.0903 43.6541 57.1947 43.7589C57.2991 43.8637 57.3576 44.0063 57.3576 44.1531ZM50.7531 51.3879C50.7531 51.5367 50.6947 51.6793 50.5903 51.7841C50.4859 51.8889 50.3439 51.9476 50.1977 51.9476H46.5936C46.2866 51.9476 46.0381 51.6961 46.0381 51.3879C46.0381 51.0796 46.2866 50.8281 46.5936 50.8281H50.1977C50.3439 50.8281 50.4859 50.8868 50.5903 50.9916C50.6947 51.0964 50.7531 51.239 50.7531 51.3879Z" stroke="white" stroke-width="0.5"/>
</svg>
