<svg width="83" height="83" viewBox="0 0 83 83" fill="none" xmlns="http://www.w3.org/2000/svg">
<rect width="83" height="83" rx="41.5" fill="#41545F"/>
<path d="M52.2964 56.0585C52.4117 56.05 52.5252 56.0452 52.6381 56.0452C56.5123 56.0452 59.7538 53.6254 61.0763 50.2241L65.9393 58.6488L61.7217 57.505L61.7079 57.5013L61.694 57.4981C60.1875 57.1504 58.5941 58.0653 58.1337 59.5614L58.13 59.5735L58.1267 59.5857L56.9256 64.015L52.2964 56.0585Z" stroke="white" stroke-width="1.5"/>
<path d="M22.4901 57.5944L18.076 58.7914L22.9605 50.2607C24.2619 53.657 27.5776 56.0516 31.4834 56.1313L31.491 56.1315H31.4987C31.6143 56.1315 31.7307 56.1365 31.8488 56.1455L27.2958 64.0951L26.0963 59.672L26.093 59.6598L26.0893 59.6477C25.6464 58.2083 24.0737 57.1157 22.4901 57.5944Z" stroke="white" stroke-width="1.5"/>
<path d="M61.0384 32.4321L61.0383 32.4321L61.0475 32.441C63.326 34.6435 63.3391 38.3894 61.0384 40.6901C59.3439 42.3847 58.4028 44.6466 58.4028 47.0878C58.4028 50.2944 55.812 52.8858 52.5263 52.8094L52.5176 52.8092H52.5089C51.2955 52.8092 48.2886 53.1724 46.1 55.4562L46.1 55.4562L46.0938 55.4628C43.9036 57.804 40.1655 57.7572 37.8531 55.4448C37.0986 54.6903 35.1999 52.9025 31.4741 52.8094L31.4728 52.8094C28.1536 52.7322 25.5615 50.1156 25.5615 46.9153C25.5615 44.5645 24.6233 42.215 22.9258 40.5176L22.9259 40.5175L22.9168 40.5087C20.6383 38.3061 20.6251 34.5602 22.9258 32.2595C24.6204 30.5649 25.5615 28.303 25.5615 25.8618C25.5615 22.5721 28.2393 19.9679 31.4554 19.9679C33.8062 19.9679 36.1557 19.0297 37.8531 17.3322C38.347 16.8384 39.5823 16.0519 41.1241 15.8177C42.6218 15.5902 44.4097 15.881 46.1236 17.517L46.1324 17.5253L46.1414 17.5334C47.8848 19.0933 50.0404 20.1405 52.5089 20.1405C55.7986 20.1405 58.4028 22.8183 58.4028 26.0344C58.4028 28.3852 59.341 30.7346 61.0384 32.4321Z" stroke="white" stroke-width="1.5"/>
<circle cx="41.5934" cy="36.1398" r="13.487" stroke="white" stroke-width="1.5"/>
</svg>
