<svg width="83" height="83" viewBox="0 0 83 83" fill="none" xmlns="http://www.w3.org/2000/svg">
<rect width="83" height="83" rx="41.5" fill="#41545F"/>
<path d="M29.9518 36.3442V40H16.6466L20.8496 35.5981C22.3417 34.0313 23.4609 32.6635 24.2567 31.3951C24.7043 30.6988 25.152 29.8781 25.152 28.8087C25.152 28.6346 25.152 27.7642 24.6546 27.217C24.4059 26.9435 23.9831 26.7197 23.436 26.7197C22.7397 26.7197 22.2671 27.043 21.9936 27.3911C21.5957 27.9134 21.4216 28.8584 21.3967 29.4304H16.945C16.9699 27.2668 17.915 25.7 18.7854 24.8296C19.9045 23.7104 21.4216 23.039 23.4857 23.039C25.9727 23.039 27.4151 24.0089 28.1612 24.755C28.8327 25.4264 29.7777 26.6948 29.7777 28.8336C29.7777 30.9226 28.8078 32.365 27.3157 33.7577L24.5303 36.3442H29.9518ZM43.1976 23.412V33.5588H45.212V36.8664H43.1976V40H39.2185V36.8664H31.1856V34.1059L37.5771 23.412H43.1976ZM35.3139 33.5588H39.2185V26.7943L35.3139 33.5588Z" fill="white"/>
<path d="M53.6163 60.3477L61.1766 47.4155H54.2629V43.7597H67.8665L58.3663 60.3477H53.6163Z" fill="white"/>
<path d="M59.8594 31.8262L37.4779 54.2076" stroke="white" stroke-width="1.13043"/>
</svg>
